<svg width="35" height="23" viewBox="0 0 35 23" fill="none" xmlns="http://www.w3.org/2000/svg">
<path d="M13.0194 22.4501C12.7518 22.7771 12.3208 23 11.8601 23C11.3845 23 10.9535 22.7771 10.686 22.4501C7.98115 19.3142 1.51621 11.5563 0.624493 9.02977C-0.549601 5.59666 0.936594 1.76228 3.93871 0.439568C6.92596 -0.868283 10.3145 0.840841 11.4886 4.25909C11.6372 4.70495 11.7561 5.35887 11.8601 6.16142L23.0809 9.02977C22.204 11.5563 15.7242 19.3142 13.0194 22.4501Z" fill="#CADA2A"/>
<path fill-rule="evenodd" clip-rule="evenodd" d="M23.1547 23C23.6155 23 24.0465 22.7771 24.314 22.4501C27.0188 19.3142 33.4986 11.5563 34.3755 9.02977C35.5496 5.59666 34.0634 1.76228 31.0613 0.439568C28.074 -0.868283 24.7004 0.840841 23.5114 4.25909C23.3628 4.70495 23.2439 5.35887 23.1547 6.16142C23.0507 5.35887 22.9318 4.70495 22.7832 4.25909C21.6091 0.840841 18.2206 -0.868283 15.2333 0.439568C12.2312 1.76228 10.745 5.59666 11.9191 9.02977C12.8108 11.5563 19.2758 19.3142 21.9806 22.4501C22.2482 22.7771 22.6792 23 23.1547 23" fill="#00A82D"/>
</svg>
