<svg width="30" height="31" viewBox="0 0 30 31" fill="none" xmlns="http://www.w3.org/2000/svg">
<circle cx="9.5" cy="15" r="4.5" fill="#00A82D"/>
<path fill-rule="evenodd" clip-rule="evenodd" d="M5.18722 19.8633C3.25947 21.2206 2 23.4632 2 26V26.8146C2 27.7454 2.75458 28.5 3.68539 28.5H15.3146C16.2454 28.5 17 27.7454 17 26.8146V26C17 23.4632 15.7405 21.2206 13.8128 19.8633C12.6653 20.8816 11.1549 21.5001 9.5 21.5001C7.84513 21.5001 6.3347 20.8816 5.18722 19.8633Z" fill="#00A82D"/>
<circle cx="20.5" cy="7" r="3.5" stroke="#1A1A1A" stroke-width="2"/>
<mask id="path-4-inside-1" fill="white">
<path fill-rule="evenodd" clip-rule="evenodd" d="M15.9999 15C15.9999 16.2123 15.668 17.3471 15.0901 18.3185C15.9208 18.924 16.6499 19.6614 17.2464 20.5H26.3146C27.2454 20.5 28 19.7454 28 18.8146V18C28 15.4632 26.7405 13.2206 24.8128 11.8633C23.6653 12.8816 22.1549 13.5001 20.5 13.5001C18.8451 13.5001 17.3347 12.8816 16.1872 11.8633C15.9377 12.039 15.6994 12.2295 15.4736 12.4335C15.8123 13.2209 15.9999 14.0885 15.9999 15Z"/>
</mask>
<path d="M15.0901 18.3185L13.3713 17.2959L12.4399 18.8615L13.912 19.9346L15.0901 18.3185ZM17.2464 20.5L15.6167 21.6593L16.2147 22.5H17.2464V20.5ZM24.8128 11.8633L25.9642 10.228L24.6695 9.31641L23.4852 10.3674L24.8128 11.8633ZM16.1872 11.8633L17.5148 10.3674L16.3305 9.31641L15.0358 10.228L16.1872 11.8633ZM15.4736 12.4335L14.1327 10.9496L13.0707 11.9091L13.6363 13.2239L15.4736 12.4335ZM16.809 19.341C17.5658 18.0689 17.9999 16.5821 17.9999 15H13.9999C13.9999 15.8425 13.7702 16.6253 13.3713 17.2959L16.809 19.341ZM18.8762 19.3407C18.1546 18.3264 17.273 17.4347 16.2683 16.7023L13.912 19.9346C14.5685 20.4132 15.1451 20.9964 15.6167 21.6593L18.8762 19.3407ZM17.2464 22.5H26.3146V18.5H17.2464V22.5ZM26.3146 22.5C28.35 22.5 30 20.85 30 18.8146H26C26 18.6409 26.1409 18.5 26.3146 18.5V22.5ZM30 18.8146V18H26V18.8146H30ZM30 18C30 14.7851 28.4011 11.9438 25.9642 10.228L23.6614 13.4986C25.0799 14.4974 26 16.1413 26 18H30ZM23.4852 10.3674C22.6896 11.0735 21.647 11.5001 20.5 11.5001V15.5001C22.6627 15.5001 24.641 14.6897 26.1403 13.3592L23.4852 10.3674ZM20.5 11.5001C19.353 11.5001 18.3104 11.0735 17.5148 10.3674L14.8597 13.3592C16.359 14.6897 18.3373 15.5001 20.5 15.5001V11.5001ZM15.0358 10.228C14.72 10.4503 14.4184 10.6914 14.1327 10.9496L16.8144 13.9175C16.9804 13.7675 17.1554 13.6276 17.3386 13.4986L15.0358 10.228ZM17.9999 15C17.9999 13.8118 17.7549 12.6755 17.3108 11.6432L13.6363 13.2239C13.8696 13.7662 13.9999 14.3653 13.9999 15H17.9999Z" fill="#1A1A1A" mask="url(#path-4-inside-1)"/>
</svg>
