<svg width="30" height="31" viewBox="0 0 30 31" fill="none" xmlns="http://www.w3.org/2000/svg">
<rect x="3" y="18.5" width="24" height="2" fill="#1A1A1A"/>
<circle cx="23.5" cy="7" r="4.5" fill="#00A82D"/>
<path d="M28 7C28 9.48528 25.9853 11.5 23.5 11.5C21.0147 11.5 19 9.48528 19 7C19 4.51472 21.0147 2.5 23.5 2.5C25.9853 2.5 28 4.51472 28 7Z" fill="#00A82D"/>
<path fill-rule="evenodd" clip-rule="evenodd" d="M21.9037 13.3025C21.9671 14.0182 22 14.7526 22 15.5C22 18.9353 21.3059 22.0948 20.1371 24.4325C18.9981 26.7104 17.2397 28.5 15 28.5C12.7603 28.5 11.0019 26.7104 9.86293 24.4325C8.69409 22.0948 8 18.9353 8 15.5C8 12.0647 8.69409 8.9052 9.86293 6.5675C11.0019 4.28963 12.7603 2.5 15 2.5C16.0996 2.5 17.0833 2.93142 17.9345 3.64022C17.5659 4.24954 17.2945 4.92427 17.1419 5.6429C16.4244 4.85809 15.6787 4.5 15 4.5C13.926 4.5 12.6844 5.39666 11.6518 7.46193C10.6491 9.46739 10 12.3079 10 15.5C10 18.6921 10.6491 21.5326 11.6518 23.5381C12.6844 25.6033 13.926 26.5 15 26.5C16.074 26.5 17.3156 25.6033 18.3482 23.5381C19.3509 21.5326 20 18.6921 20 15.5C20 14.3945 19.9221 13.3311 19.7787 12.33C20.4134 12.774 21.131 13.1074 21.9037 13.3025Z" fill="#1A1A1A"/>
<path fill-rule="evenodd" clip-rule="evenodd" d="M18.0218 10.5H3V12.5H20.0343C19.2256 11.9894 18.5374 11.3053 18.0218 10.5ZM26.9657 12.5H27V12.4782C26.9886 12.4855 26.9771 12.4928 26.9657 12.5Z" fill="#1A1A1A"/>
<path fill-rule="evenodd" clip-rule="evenodd" d="M27.5472 12.0866C27.8425 13.1743 28 14.3188 28 15.5C28 22.6797 22.1797 28.5 15 28.5C7.8203 28.5 2 22.6797 2 15.5C2 8.3203 7.8203 2.5 15 2.5C16.1812 2.5 17.3257 2.65754 18.4134 2.95277C17.9835 3.49238 17.6377 4.10194 17.3957 4.76163C16.6245 4.59034 15.8228 4.5 15 4.5C8.92487 4.5 4 9.42487 4 15.5C4 21.5751 8.92487 26.5 15 26.5C21.0751 26.5 26 21.5751 26 15.5C26 14.6772 25.9097 13.8755 25.7384 13.1043C26.3981 12.8623 27.0076 12.5165 27.5472 12.0866Z" fill="#1A1A1A"/>
</svg>
