<svg width="30" height="31" viewBox="0 0 30 31" fill="none" xmlns="http://www.w3.org/2000/svg">
<path fill-rule="evenodd" clip-rule="evenodd" d="M8.03062 13.277L3.90381 17.4038C1.3654 19.9422 1.3654 24.0578 3.90381 26.5962C6.44222 29.1346 10.5578 29.1346 13.0962 26.5962L18.0962 21.5962C20.6346 19.0578 20.6346 14.9422 18.0962 12.4038C17.4698 11.7774 16.7473 11.3056 15.9762 10.9883L14.7322 12.2323C14.6184 12.3462 14.5178 12.4683 14.4304 12.5968C15.2555 12.7703 16.0413 13.1774 16.682 13.8181C18.4393 15.5754 18.4393 18.4247 16.682 20.182L11.682 25.182C9.92462 26.9394 7.07538 26.9394 5.31802 25.182C3.56066 23.4247 3.56066 20.5754 5.31802 18.8181L8.21806 15.918C8.01822 15.0514 7.95574 14.1595 8.03062 13.277Z" fill="#1A1A1A"/>
<path fill-rule="evenodd" clip-rule="evenodd" d="M15.5696 18.4033C14.7445 18.2298 13.9587 17.8227 13.318 17.182C11.5607 15.4247 11.5607 12.5754 13.318 10.8181L18.318 5.81808C20.0754 4.06072 22.9246 4.06072 24.682 5.81808C26.4393 7.57544 26.4393 10.4247 24.682 12.182L22.182 14.682L21.782 15.0821C21.9818 15.9487 22.0443 16.8406 21.9694 17.723L26.0962 13.5962C28.6346 11.0578 28.6346 6.94221 26.0962 4.4038C23.5578 1.8654 19.4422 1.8654 16.9038 4.4038L11.9038 9.4038C9.3654 11.9422 9.3654 16.0578 11.9038 18.5962C12.5302 19.2226 13.2527 19.6945 14.0239 20.0117L15.2678 18.7678C15.3816 18.6539 15.4822 18.5318 15.5696 18.4033Z" fill="#00A82D"/>
</svg>
