<svg width="30" height="31" viewBox="0 0 30 31" fill="none" xmlns="http://www.w3.org/2000/svg">
<path fill-rule="evenodd" clip-rule="evenodd" d="M15 4.5C14.4477 4.5 14 4.94772 14 5.5C14 6.05228 14.4477 6.5 15 6.5C15.5523 6.5 16 6.05228 16 5.5C16 4.94772 15.5523 4.5 15 4.5ZM18 5.5C18 7.15685 16.6569 8.5 15 8.5C13.3431 8.5 12 7.15685 12 5.5C12 3.84315 13.3431 2.5 15 2.5C16.6569 2.5 18 3.84315 18 5.5Z" fill="#00A82D"/>
<path d="M8 13.5C8 9.63401 11.134 6.5 15 6.5C18.866 6.5 22 9.63401 22 13.5V18.5H8V13.5Z" fill="#00A82D"/>
<path d="M5 21.5C5 20.3954 5.89543 19.5 7 19.5H23C24.1046 19.5 25 20.3954 25 21.5V21.5C25 22.6046 24.1046 23.5 23 23.5H7C5.89543 23.5 5 22.6046 5 21.5V21.5Z" fill="#00A82D"/>
<path d="M15 28.5C16.6569 28.5 18 27.1569 18 25.5H12C12 27.1569 13.3431 28.5 15 28.5Z" fill="#1A1A1A"/>
</svg>
