<svg width="30" height="31" viewBox="0 0 30 31" fill="none" xmlns="http://www.w3.org/2000/svg">
<path fill-rule="evenodd" clip-rule="evenodd" d="M17 12C17 15.0376 14.5376 17.5 11.5 17.5C8.46243 17.5 6 15.0376 6 12C6 8.96243 8.46243 6.5 11.5 6.5C14.5376 6.5 17 8.96243 17 12ZM9.76349 14.9543C9.7879 14.9595 9.81808 14.9658 9.85418 14.9658H9.85461C9.89258 14.9657 9.92557 14.9589 9.96432 14.9509L9.97013 14.9497C9.98255 14.9484 10.0031 14.9462 10.027 14.9386C10.0839 14.9201 10.1376 14.8928 10.1867 14.857L11.3564 14.0001C11.373 13.9881 11.3928 13.9781 11.4192 13.9689L11.4391 13.9638C11.4556 13.9595 11.4712 13.9571 11.4878 13.9563L11.4995 13.955L11.5069 13.9552C11.5181 13.9556 11.5291 13.9573 11.5536 13.9612C11.5555 13.9615 11.5573 13.9618 11.5592 13.9621C11.5645 13.9629 11.5699 13.9636 11.575 13.9651C11.6004 13.9734 11.624 13.9854 11.6452 14.001L12.8136 14.857C12.9109 14.9282 13.026 14.9658 13.1463 14.9658C13.266 14.9658 13.3803 14.9286 13.4769 14.8583C13.5259 14.8227 13.5685 14.7801 13.6033 14.7318C13.6726 14.6357 13.7093 14.5221 13.7093 14.4033C13.7093 14.3435 13.6999 14.2841 13.6811 14.2265L13.2276 12.8493C13.2213 12.8301 13.2174 12.8106 13.216 12.791C13.212 12.7341 13.2283 12.6771 13.2619 12.6306C13.2775 12.6089 13.2961 12.5903 13.3177 12.5748L14.4928 11.7282C14.5904 11.6579 14.6616 11.5604 14.6989 11.4466C14.7172 11.3907 14.7266 11.3327 14.7267 11.2742C14.727 11.2143 14.7176 11.1546 14.699 11.0976C14.6427 10.924 14.5116 10.7926 14.3394 10.7367C14.2828 10.7184 14.2235 10.709 14.1614 10.7086L12.7113 10.7142C12.6325 10.7142 12.5606 10.6777 12.5139 10.6139C12.4983 10.5923 12.4865 10.569 12.4784 10.5435L12.0362 9.1645C11.9611 8.93057 11.7457 8.77332 11.4999 8.77332C11.2543 8.77332 11.039 8.93057 10.9639 9.1645L10.5219 10.5437C10.5138 10.5688 10.5018 10.5923 10.4862 10.6139C10.4396 10.6777 10.3677 10.7142 10.2896 10.7142L8.82849 10.7089C8.64467 10.72 8.48121 10.8053 8.38041 10.9427C8.34605 10.9896 8.31933 11.0416 8.30114 11.0975C8.28251 11.1546 8.27312 11.2143 8.27341 11.2742C8.27356 11.3325 8.28294 11.3906 8.30114 11.4466C8.33839 11.5606 8.40973 11.6579 8.50749 11.7284L9.68364 12.5758C9.7001 12.5878 9.71469 12.6014 9.72739 12.6166C9.75165 12.6453 9.76913 12.68 9.77793 12.7175C9.78227 12.7357 9.78458 12.7546 9.78472 12.7728C9.78472 12.7998 9.78039 12.8261 9.77216 12.8511L9.31917 14.2265C9.30025 14.2837 9.29087 14.3432 9.29087 14.4033C9.29087 14.5221 9.32754 14.6356 9.39686 14.7316C9.4318 14.7803 9.4744 14.8229 9.52292 14.858C9.57144 14.8934 9.62487 14.9206 9.68234 14.939C9.70747 14.9471 9.72913 14.9494 9.74891 14.9513L9.76349 14.9543Z" fill="#00A82D"/>
<path fill-rule="evenodd" clip-rule="evenodd" d="M11.5 19.5C15.6421 19.5 19 16.1421 19 12C19 7.85786 15.6421 4.5 11.5 4.5C7.35786 4.5 4 7.85786 4 12C4 16.1421 7.35786 19.5 11.5 19.5ZM11.5 21.5C16.7467 21.5 21 17.2467 21 12C21 6.75329 16.7467 2.5 11.5 2.5C6.25329 2.5 2 6.75329 2 12C2 17.2467 6.25329 21.5 11.5 21.5Z" fill="#1A1A1A"/>
<path fill-rule="evenodd" clip-rule="evenodd" d="M27.2928 28.207C26.9023 28.5975 26.2691 28.5975 25.8786 28.207L17.2928 19.6212C16.9023 19.2306 16.9023 18.5975 17.2928 18.207C17.6833 17.8164 18.3165 17.8164 18.707 18.207L27.2928 26.7927C27.6833 27.1833 27.6833 27.8164 27.2928 28.207Z" fill="#1A1A1A"/>
</svg>
